<svg xmlns="http://www.w3.org/2000/svg" xmlns:xlink="http://www.w3.org/1999/xlink" width="500" zoomAndPan="magnify" viewBox="0 0 375 374.999991" height="500" preserveAspectRatio="xMidYMid meet" version="1.0"><defs><g/></defs><rect x="-37.5" width="450" fill="#ffffff" y="-37.499999" height="449.999989" fill-opacity="1"/><rect x="-37.5" width="450" fill="#ffffff" y="-37.499999" height="449.999989" fill-opacity="1"/><g fill="#000000" fill-opacity="1"><g transform="translate(1.83999, 219.153932)"><g><path d="M 6.984375 -22.140625 C 9.441406 -20.410156 12.035156 -19.0625 14.765625 -18.09375 C 17.492188 -17.132812 20.019531 -16.65625 22.34375 -16.65625 C 23.675781 -16.65625 24.773438 -16.988281 25.640625 -17.65625 C 26.503906 -18.320312 26.9375 -19.21875 26.9375 -20.34375 C 26.9375 -20.945312 26.832031 -21.5 26.625 -22 C 26.425781 -22.5 26.023438 -23.015625 25.421875 -23.546875 C 24.828125 -24.078125 24.015625 -24.640625 22.984375 -25.234375 C 21.960938 -25.835938 20.617188 -26.535156 18.953125 -27.328125 C 15.828125 -28.796875 13.414062 -30.0625 11.71875 -31.125 C 10.019531 -32.1875 8.539062 -33.316406 7.28125 -34.515625 C 5.550781 -36.046875 4.238281 -37.972656 3.34375 -40.296875 C 2.445312 -42.628906 2 -45.125 2 -47.78125 C 2 -50.632812 2.460938 -53.257812 3.390625 -55.65625 C 4.316406 -58.050781 5.628906 -60.128906 7.328125 -61.890625 C 9.023438 -63.648438 11.003906 -65.03125 13.265625 -66.03125 C 15.523438 -67.03125 18.019531 -67.53125 20.75 -67.53125 C 22.144531 -67.53125 23.457031 -67.445312 24.6875 -67.28125 C 25.914062 -67.113281 27.53125 -66.796875 29.53125 -66.328125 L 30.21875 -69.21875 L 44.59375 -65.734375 L 40.09375 -47.484375 C 38.238281 -49.015625 36.179688 -50.191406 33.921875 -51.015625 C 31.660156 -51.847656 29.460938 -52.265625 27.328125 -52.265625 C 25.671875 -52.265625 24.328125 -51.945312 23.296875 -51.3125 C 22.265625 -50.6875 21.75 -49.84375 21.75 -48.78125 C 21.75 -48.25 21.863281 -47.75 22.09375 -47.28125 C 22.320312 -46.8125 22.769531 -46.3125 23.4375 -45.78125 C 24.101562 -45.25 25 -44.648438 26.125 -43.984375 C 27.257812 -43.328125 28.691406 -42.566406 30.421875 -41.703125 C 32.085938 -40.835938 33.5 -40.085938 34.65625 -39.453125 C 35.820312 -38.816406 36.820312 -38.21875 37.65625 -37.65625 C 38.488281 -37.09375 39.203125 -36.546875 39.796875 -36.015625 C 40.398438 -35.484375 40.96875 -34.882812 41.5 -34.21875 C 44.425781 -30.6875 45.890625 -26.328125 45.890625 -21.140625 C 45.890625 -17.890625 45.335938 -14.898438 44.234375 -12.171875 C 43.140625 -9.441406 41.628906 -7.113281 39.703125 -5.1875 C 37.773438 -3.257812 35.460938 -1.742188 32.765625 -0.640625 C 30.078125 0.453125 27.101562 1 23.84375 1 C 20.25 1 16.753906 0.5 13.359375 -0.5 C 9.972656 -1.5 6.453125 -3.0625 2.796875 -5.1875 Z M 6.984375 -22.140625 "/></g></g></g><g fill="#000000" fill-opacity="1"><g transform="translate(49.418767, 219.153932)"><g><path d="M 22.75 -49.578125 C 25.800781 -49.578125 28.609375 -48.960938 31.171875 -47.734375 C 33.734375 -46.503906 35.941406 -44.757812 37.796875 -42.5 C 39.660156 -40.238281 41.109375 -37.5625 42.140625 -34.46875 C 43.171875 -31.375 43.6875 -28 43.6875 -24.34375 C 43.6875 -20.613281 43.171875 -17.1875 42.140625 -14.0625 C 41.109375 -10.9375 39.660156 -8.257812 37.796875 -6.03125 C 35.941406 -3.800781 33.695312 -2.070312 31.0625 -0.84375 C 28.4375 0.382812 25.5625 1 22.4375 1 C 19.445312 1 16.703125 0.367188 14.203125 -0.890625 C 11.710938 -2.160156 9.535156 -3.925781 7.671875 -6.1875 C 5.816406 -8.445312 4.375 -11.125 3.34375 -14.21875 C 2.3125 -17.3125 1.796875 -20.6875 1.796875 -24.34375 C 1.796875 -28 2.3125 -31.375 3.34375 -34.46875 C 4.375 -37.5625 5.816406 -40.21875 7.671875 -42.4375 C 9.535156 -44.664062 11.75 -46.410156 14.3125 -47.671875 C 16.875 -48.941406 19.6875 -49.578125 22.75 -49.578125 Z M 22.75 -32.921875 C 21.21875 -32.921875 20.050781 -32.140625 19.25 -30.578125 C 18.457031 -29.015625 18.0625 -26.769531 18.0625 -23.84375 C 18.0625 -20.84375 18.457031 -18.5625 19.25 -17 C 20.050781 -15.4375 21.21875 -14.65625 22.75 -14.65625 C 24.269531 -14.65625 25.429688 -15.4375 26.234375 -17 C 27.035156 -18.5625 27.4375 -20.773438 27.4375 -23.640625 C 27.4375 -29.828125 25.875 -32.921875 22.75 -32.921875 Z M 22.75 -32.921875 "/></g></g></g><g fill="#000000" fill-opacity="1"><g transform="translate(94.902884, 219.153932)"><g><path d="M 4.1875 -32.21875 L 0.5 -32.21875 L 4.1875 -48.578125 L 20.546875 -48.578125 L 20.546875 -33.921875 L 23.84375 -48.578125 C 25.832031 -48.578125 27.390625 -48.578125 28.515625 -48.578125 C 29.648438 -48.578125 30.535156 -48.5625 31.171875 -48.53125 C 31.804688 -48.5 32.320312 -48.445312 32.71875 -48.375 C 33.113281 -48.3125 33.578125 -48.210938 34.109375 -48.078125 C 35.503906 -47.742188 36.816406 -47.109375 38.046875 -46.171875 C 39.285156 -45.242188 40.269531 -44.082031 41 -42.6875 C 41.394531 -42.03125 41.707031 -41.398438 41.9375 -40.796875 C 42.175781 -40.203125 42.34375 -39.453125 42.4375 -38.546875 C 42.539062 -37.648438 42.609375 -36.46875 42.640625 -35 C 42.671875 -33.539062 42.6875 -31.582031 42.6875 -29.125 L 42.6875 -15.953125 L 46.1875 -15.953125 L 42.6875 0 L 26.328125 0 L 26.328125 -21.546875 C 26.328125 -23.273438 26.328125 -24.632812 26.328125 -25.625 C 26.328125 -26.625 26.3125 -27.421875 26.28125 -28.015625 C 26.25 -28.617188 26.179688 -29.085938 26.078125 -29.421875 C 25.984375 -29.753906 25.867188 -30.085938 25.734375 -30.421875 C 25.066406 -31.679688 23.703125 -32.3125 21.640625 -32.3125 C 21.515625 -32.3125 21.367188 -32.3125 21.203125 -32.3125 C 21.035156 -32.3125 20.816406 -32.28125 20.546875 -32.21875 L 20.546875 0 L 4.1875 0 Z M 4.1875 -32.21875 "/></g></g></g><g fill="#000000" fill-opacity="1"><g transform="translate(141.583947, 219.153932)"><g><path d="M 20.953125 -0.203125 C 17.890625 -0.335938 15.539062 -0.648438 13.90625 -1.140625 C 12.28125 -1.640625 10.738281 -2.554688 9.28125 -3.890625 C 6.820312 -6.085938 4.957031 -8.945312 3.6875 -12.46875 C 2.425781 -15.988281 1.796875 -20.046875 1.796875 -24.640625 C 1.796875 -28.296875 2.226562 -31.617188 3.09375 -34.609375 C 3.957031 -37.609375 5.1875 -40.171875 6.78125 -42.296875 C 8.375 -44.421875 10.316406 -46.046875 12.609375 -47.171875 C 14.910156 -48.304688 17.457031 -48.875 20.25 -48.875 C 21.78125 -48.875 23.160156 -48.707031 24.390625 -48.375 C 25.617188 -48.039062 26.898438 -47.507812 28.234375 -46.78125 L 28.234375 -48.578125 L 43.984375 -48.578125 L 43.984375 -15.953125 L 47.484375 -15.953125 L 43.984375 0 L 27.625 0 L 27.625 -14.65625 L 24.34375 0 Z M 27.625 -25.34375 C 27.625 -26.53125 27.609375 -27.503906 27.578125 -28.265625 C 27.546875 -29.035156 27.476562 -29.671875 27.375 -30.171875 C 27.28125 -30.671875 27.164062 -31.066406 27.03125 -31.359375 C 26.894531 -31.660156 26.695312 -31.945312 26.4375 -32.21875 C 25.707031 -33.019531 24.804688 -33.421875 23.734375 -33.421875 C 22.210938 -33.421875 20.984375 -32.640625 20.046875 -31.078125 C 19.117188 -29.515625 18.65625 -27.46875 18.65625 -24.9375 C 18.65625 -18.882812 21.015625 -15.859375 25.734375 -15.859375 C 25.867188 -15.859375 26.132812 -15.859375 26.53125 -15.859375 C 26.925781 -15.859375 27.289062 -15.890625 27.625 -15.953125 Z M 27.625 -25.34375 "/></g></g></g><g fill="#000000" fill-opacity="1"><g transform="translate(189.561719, 219.153932)"><g><path d="M 5.484375 -32.3125 L 0.40625 -32.3125 L 3.890625 -48.578125 L 5.484375 -48.578125 L 5.484375 -54.65625 L 21.84375 -58.859375 L 21.84375 -48.578125 L 28.828125 -48.578125 L 25.140625 -32.3125 L 21.84375 -32.3125 L 21.84375 0 L 5.484375 0 Z M 5.484375 -32.3125 "/></g></g></g><g fill="#000000" fill-opacity="1"><g transform="translate(217.789803, 219.153932)"><g><path d="M 4.1875 -32.21875 L 0.5 -32.21875 L 4.1875 -48.578125 L 20.546875 -48.578125 L 20.546875 -44.1875 C 21.546875 -45.78125 22.757812 -46.941406 24.1875 -47.671875 C 25.613281 -48.410156 27.425781 -48.78125 29.625 -48.78125 C 29.957031 -48.78125 30.289062 -48.78125 30.625 -48.78125 C 30.957031 -48.78125 31.351562 -48.710938 31.8125 -48.578125 L 28.234375 -32.21875 C 27.234375 -32.75 26.367188 -33.015625 25.640625 -33.015625 C 24.835938 -33.015625 24.070312 -32.832031 23.34375 -32.46875 C 22.613281 -32.101562 22.046875 -31.617188 21.640625 -31.015625 C 21.441406 -30.691406 21.257812 -30.328125 21.09375 -29.921875 C 20.925781 -29.523438 20.804688 -29.007812 20.734375 -28.375 C 20.671875 -27.75 20.625 -26.953125 20.59375 -25.984375 C 20.5625 -25.015625 20.546875 -23.800781 20.546875 -22.34375 L 20.546875 0 L 4.1875 0 Z M 4.1875 -32.21875 "/></g></g></g><g fill="#000000" fill-opacity="1"><g transform="translate(249.110005, 219.153932)"><g><path d="M 20.953125 -0.203125 C 17.890625 -0.335938 15.539062 -0.648438 13.90625 -1.140625 C 12.28125 -1.640625 10.738281 -2.554688 9.28125 -3.890625 C 6.820312 -6.085938 4.957031 -8.945312 3.6875 -12.46875 C 2.425781 -15.988281 1.796875 -20.046875 1.796875 -24.640625 C 1.796875 -28.296875 2.226562 -31.617188 3.09375 -34.609375 C 3.957031 -37.609375 5.1875 -40.171875 6.78125 -42.296875 C 8.375 -44.421875 10.316406 -46.046875 12.609375 -47.171875 C 14.910156 -48.304688 17.457031 -48.875 20.25 -48.875 C 21.78125 -48.875 23.160156 -48.707031 24.390625 -48.375 C 25.617188 -48.039062 26.898438 -47.507812 28.234375 -46.78125 L 28.234375 -48.578125 L 43.984375 -48.578125 L 43.984375 -15.953125 L 47.484375 -15.953125 L 43.984375 0 L 27.625 0 L 27.625 -14.65625 L 24.34375 0 Z M 27.625 -25.34375 C 27.625 -26.53125 27.609375 -27.503906 27.578125 -28.265625 C 27.546875 -29.035156 27.476562 -29.671875 27.375 -30.171875 C 27.28125 -30.671875 27.164062 -31.066406 27.03125 -31.359375 C 26.894531 -31.660156 26.695312 -31.945312 26.4375 -32.21875 C 25.707031 -33.019531 24.804688 -33.421875 23.734375 -33.421875 C 22.210938 -33.421875 20.984375 -32.640625 20.046875 -31.078125 C 19.117188 -29.515625 18.65625 -27.46875 18.65625 -24.9375 C 18.65625 -18.882812 21.015625 -15.859375 25.734375 -15.859375 C 25.867188 -15.859375 26.132812 -15.859375 26.53125 -15.859375 C 26.925781 -15.859375 27.289062 -15.890625 27.625 -15.953125 Z M 27.625 -25.34375 "/></g></g></g><g fill="#000000" fill-opacity="1"><g transform="translate(297.087768, 219.153932)"><g><path d="M 30.21875 -0.296875 C 28.695312 0.171875 27.316406 0.503906 26.078125 0.703125 C 24.847656 0.898438 23.570312 1 22.25 1 C 19.1875 1 16.40625 0.367188 13.90625 -0.890625 C 11.414062 -2.160156 9.269531 -3.90625 7.46875 -6.125 C 5.675781 -8.351562 4.28125 -11.046875 3.28125 -14.203125 C 2.289062 -17.367188 1.796875 -20.847656 1.796875 -24.640625 C 1.796875 -28.359375 2.273438 -31.75 3.234375 -34.8125 C 4.203125 -37.875 5.582031 -40.5 7.375 -42.6875 C 9.175781 -44.882812 11.335938 -46.582031 13.859375 -47.78125 C 16.390625 -48.976562 19.21875 -49.578125 22.34375 -49.578125 C 23.9375 -49.578125 25.332031 -49.441406 26.53125 -49.171875 C 27.726562 -48.910156 28.957031 -48.445312 30.21875 -47.78125 L 26.640625 -31.71875 C 25.367188 -32.519531 24.300781 -32.921875 23.4375 -32.921875 C 21.90625 -32.921875 20.722656 -32.117188 19.890625 -30.515625 C 19.066406 -28.921875 18.65625 -26.695312 18.65625 -23.84375 C 18.65625 -21.113281 19.066406 -18.898438 19.890625 -17.203125 C 20.722656 -15.503906 21.804688 -14.65625 23.140625 -14.65625 C 23.804688 -14.65625 24.390625 -14.804688 24.890625 -15.109375 C 25.390625 -15.410156 25.972656 -15.925781 26.640625 -16.65625 Z M 30.21875 -0.296875 "/></g></g></g><g fill="#000000" fill-opacity="1"><g transform="translate(328.407971, 219.153932)"><g><path d="M 4.1875 -51.875 L 0.5 -51.875 L 4.1875 -68.125 L 20.546875 -68.125 L 20.546875 -33.921875 L 23.734375 -48.578125 L 28.421875 -48.578125 C 31.085938 -48.578125 33.164062 -48.34375 34.65625 -47.875 C 36.15625 -47.414062 37.503906 -46.585938 38.703125 -45.390625 C 39.703125 -44.390625 40.46875 -43.304688 41 -42.140625 C 41.53125 -40.984375 41.925781 -39.539062 42.1875 -37.8125 C 42.257812 -37.269531 42.3125 -36.816406 42.34375 -36.453125 C 42.375 -36.085938 42.40625 -35.570312 42.4375 -34.90625 C 42.476562 -34.25 42.5 -33.351562 42.5 -32.21875 C 42.5 -31.09375 42.5 -29.53125 42.5 -27.53125 L 42.5 -15.953125 L 45.984375 -15.953125 L 42.5 0 L 26.140625 0 L 26.140625 -18.359375 C 26.140625 -21.210938 26.117188 -23.421875 26.078125 -24.984375 C 26.046875 -26.546875 25.992188 -27.722656 25.921875 -28.515625 C 25.859375 -29.316406 25.773438 -29.851562 25.671875 -30.125 C 25.578125 -30.394531 25.429688 -30.660156 25.234375 -30.921875 C 24.503906 -31.847656 23.273438 -32.3125 21.546875 -32.3125 C 21.210938 -32.3125 20.878906 -32.28125 20.546875 -32.21875 L 20.546875 0 L 4.1875 0 Z M 4.1875 -51.875 "/></g></g></g></svg>